<svg width="606" height="441" viewBox="0 0 606 441" fill="none" xmlns="http://www.w3.org/2000/svg">
<g clip-path="url(#clip0_6_16)">
<path d="M352.994 77.7432C364.352 77.7432 373.559 68.5308 373.559 57.1667C373.559 45.8027 364.352 36.5903 352.994 36.5903C341.637 36.5903 332.429 45.8027 332.429 57.1667C332.429 68.5308 341.637 77.7432 352.994 77.7432Z" fill="#F2F2F2"/>
<path d="M512.52 383.121C543.087 359.826 557.687 320.68 548.547 283.338C548.32 282.41 548.08 281.484 547.828 280.561C541.768 258.395 526.777 237.328 504.928 230.245C486.583 224.298 466.558 228.871 447.419 226.506C409.848 221.864 380.72 191.447 360.225 159.601C339.73 127.754 323.978 92.1062 296.745 65.7962C251.854 22.4286 178.627 13.0915 122.969 41.3206C67.312 69.5497 31.8587 132.178 33.3707 194.596C34.8828 257.013 71.9158 316.688 125.697 348.35C145.454 359.981 168.305 368.221 191.046 365.337C210.779 362.836 228.708 352.227 248.347 349.077C279.225 344.126 309.906 358.094 336.613 374.372C363.32 390.65 389.117 409.945 419.466 417.491C448.934 424.819 485.443 403.757 512.52 383.121Z" fill="#F2F2F2"/>
<path d="M468.603 42.6313C467.933 42.1843 467.255 41.7605 466.585 41.3289C447.216 28.9339 426.455 18.8643 404.731 11.3282L399.694 80.8546H367.762V1.17902C365.752 0.762879 363.726 0.369857 361.701 -4.57764e-05V80.8546H323.753C302.863 80.8546 282.828 72.5512 268.057 57.771C253.285 42.9908 244.986 22.9446 244.986 2.04222C242.953 2.48148 240.935 2.95149 238.917 3.4524V80.8547H208.009L203.211 14.5572C180.887 23.1238 159.693 34.3892 140.102 48.1028C139.763 48.334 139.424 48.5729 139.093 48.8041C137.391 49.9986 135.712 51.2162 134.041 52.4492V317.693H225.131L223.521 295.383L214.664 172.891H393.032L384.175 295.383L382.565 317.693H472.646V45.3131C471.306 44.4038 469.958 43.5099 468.603 42.6313ZM238.917 152.662H213.201L208.449 86.9272H238.917V152.662ZM361.701 152.662H318.509V151.36C318.509 150.734 318.385 150.114 318.146 149.535C317.906 148.957 317.555 148.432 317.112 147.989C316.669 147.547 316.143 147.196 315.565 146.957C314.987 146.719 314.367 146.596 313.741 146.597H294.964C294.339 146.597 293.72 146.72 293.142 146.959C292.564 147.199 292.04 147.549 291.598 147.992C291.156 148.434 290.805 148.959 290.566 149.537C290.327 150.115 290.204 150.734 290.204 151.36V152.662H244.986V86.9272H361.701V152.662ZM367.762 152.662V86.9272H399.255L394.503 152.662H367.762Z" fill="#3F3D56"/>
<path d="M-2.67029e-05 334.678C6.6908 342.611 13.9277 350.066 21.6577 356.988L584.342 357.759C592.072 350.836 599.309 343.381 606 335.449L-2.67029e-05 334.678Z" fill="#3F3D56"/>
<path d="M381.575 263.241V329.287C381.575 330.129 381.91 330.936 382.505 331.531C383.099 332.126 383.906 332.461 384.747 332.462H482.565C483.406 332.461 484.212 332.126 484.807 331.531C485.402 330.936 485.736 330.129 485.737 329.287V263.241C485.735 262.4 485.4 261.594 484.805 261C484.211 260.406 483.405 260.071 482.565 260.07H384.747C383.907 260.071 383.101 260.406 382.506 261C381.912 261.594 381.577 262.4 381.575 263.241Z" fill="#3F3D56"/>
<path d="M383.869 264.063V328.473C383.87 328.922 384.049 329.353 384.367 329.671C384.685 329.989 385.115 330.168 385.565 330.169H481.75C482.2 330.168 482.631 329.989 482.948 329.671C483.266 329.353 483.445 328.922 483.446 328.473V264.063C483.446 263.613 483.267 263.181 482.949 262.862C482.631 262.543 482.2 262.364 481.75 262.363H385.565C385.115 262.364 384.684 262.543 384.366 262.862C384.048 263.181 383.869 263.613 383.869 264.063Z" fill="#0FDCB7"/>
<path d="M379.529 342.168C379.708 342.393 379.936 342.574 380.195 342.698C380.454 342.822 380.738 342.886 381.026 342.885H485.765C486.052 342.884 486.334 342.82 486.593 342.697C486.851 342.573 487.079 342.394 487.26 342.171C487.44 341.948 487.569 341.688 487.636 341.41C487.703 341.131 487.708 340.841 487.649 340.561L486.023 332.833C485.956 332.518 485.811 332.225 485.601 331.98C485.392 331.736 485.124 331.547 484.823 331.433C484.605 331.347 484.373 331.303 484.139 331.303H382.645C382.411 331.303 382.179 331.347 381.961 331.433C381.66 331.547 381.393 331.736 381.183 331.98C380.974 332.225 380.829 332.518 380.761 332.833L379.135 340.561C379.077 340.841 379.083 341.131 379.151 341.409C379.219 341.687 379.348 341.946 379.529 342.168Z" fill="#2F2E41"/>
<path d="M480.545 334.632H483.019C483.227 334.632 483.395 334.463 483.395 334.256V333.071C483.395 332.863 483.227 332.695 483.019 332.695H480.545C480.338 332.695 480.169 332.863 480.169 333.071V334.256C480.169 334.463 480.338 334.632 480.545 334.632Z" fill="#3F3D56"/>
<path d="M474.094 334.632H476.568C476.775 334.632 476.944 334.463 476.944 334.256V333.071C476.944 332.863 476.775 332.695 476.568 332.695H474.094C473.886 332.695 473.718 332.863 473.718 333.071V334.256C473.718 334.463 473.886 334.632 474.094 334.632Z" fill="#3F3D56"/>
<path d="M467.642 334.632H470.116C470.323 334.632 470.492 334.463 470.492 334.256V333.071C470.492 332.863 470.323 332.695 470.116 332.695H467.642C467.434 332.695 467.266 332.863 467.266 333.071V334.256C467.266 334.463 467.434 334.632 467.642 334.632Z" fill="#3F3D56"/>
<path d="M461.19 334.632H463.664C463.871 334.632 464.04 334.463 464.04 334.256V333.071C464.04 332.863 463.871 332.695 463.664 332.695H461.19C460.982 332.695 460.814 332.863 460.814 333.071V334.256C460.814 334.463 460.982 334.632 461.19 334.632Z" fill="#3F3D56"/>
<path d="M454.738 334.632H457.212C457.42 334.632 457.588 334.463 457.588 334.256V333.071C457.588 332.863 457.42 332.695 457.212 332.695H454.738C454.53 332.695 454.362 332.863 454.362 333.071V334.256C454.362 334.463 454.53 334.632 454.738 334.632Z" fill="#3F3D56"/>
<path d="M448.286 334.632H450.76C450.968 334.632 451.136 334.463 451.136 334.256V333.071C451.136 332.863 450.968 332.695 450.76 332.695H448.286C448.079 332.695 447.91 332.863 447.91 333.071V334.256C447.91 334.463 448.079 334.632 448.286 334.632Z" fill="#3F3D56"/>
<path d="M441.834 334.632H444.308C444.516 334.632 444.684 334.463 444.684 334.256V333.071C444.684 332.863 444.516 332.695 444.308 332.695H441.834C441.627 332.695 441.458 332.863 441.458 333.071V334.256C441.458 334.463 441.627 334.632 441.834 334.632Z" fill="#3F3D56"/>
<path d="M435.382 334.632H437.856C438.064 334.632 438.232 334.463 438.232 334.256V333.071C438.232 332.863 438.064 332.695 437.856 332.695H435.382C435.175 332.695 435.007 332.863 435.007 333.071V334.256C435.007 334.463 435.175 334.632 435.382 334.632Z" fill="#3F3D56"/>
<path d="M428.931 334.632H431.405C431.612 334.632 431.781 334.463 431.781 334.256V333.071C431.781 332.863 431.612 332.695 431.405 332.695H428.931C428.723 332.695 428.555 332.863 428.555 333.071V334.256C428.555 334.463 428.723 334.632 428.931 334.632Z" fill="#3F3D56"/>
<path d="M422.479 334.632H424.953C425.16 334.632 425.329 334.463 425.329 334.256V333.071C425.329 332.863 425.16 332.695 424.953 332.695H422.479C422.271 332.695 422.103 332.863 422.103 333.071V334.256C422.103 334.463 422.271 334.632 422.479 334.632Z" fill="#3F3D56"/>
<path d="M416.027 334.632H418.501C418.708 334.632 418.877 334.463 418.877 334.256V333.071C418.877 332.863 418.708 332.695 418.501 332.695H416.027C415.819 332.695 415.651 332.863 415.651 333.071V334.256C415.651 334.463 415.819 334.632 416.027 334.632Z" fill="#3F3D56"/>
<path d="M409.575 334.632H412.049C412.257 334.632 412.425 334.463 412.425 334.256V333.071C412.425 332.863 412.257 332.695 412.049 332.695H409.575C409.367 332.695 409.199 332.863 409.199 333.071V334.256C409.199 334.463 409.367 334.632 409.575 334.632Z" fill="#3F3D56"/>
<path d="M403.123 334.632H405.597C405.805 334.632 405.973 334.463 405.973 334.256V333.071C405.973 332.863 405.805 332.695 405.597 332.695H403.123C402.915 332.695 402.747 332.863 402.747 333.071V334.256C402.747 334.463 402.915 334.632 403.123 334.632Z" fill="#3F3D56"/>
<path d="M396.671 334.632H399.145C399.353 334.632 399.521 334.463 399.521 334.256V333.071C399.521 332.863 399.353 332.695 399.145 332.695H396.671C396.464 332.695 396.295 332.863 396.295 333.071V334.256C396.295 334.463 396.464 334.632 396.671 334.632Z" fill="#3F3D56"/>
<path d="M390.219 334.632H392.693C392.901 334.632 393.069 334.463 393.069 334.256V333.071C393.069 332.863 392.901 332.695 392.693 332.695H390.219C390.012 332.695 389.843 332.863 389.843 333.071V334.256C389.843 334.463 390.012 334.632 390.219 334.632Z" fill="#3F3D56"/>
<path d="M383.768 334.632H386.242C386.449 334.632 386.617 334.463 386.617 334.256V333.071C386.617 332.863 386.449 332.695 386.242 332.695H383.768C383.56 332.695 383.392 332.863 383.392 333.071V334.256C383.392 334.463 383.56 334.632 383.768 334.632Z" fill="#3F3D56"/>
<path d="M480.622 337.86H483.096C483.303 337.86 483.472 337.691 483.472 337.483V336.299C483.472 336.091 483.303 335.923 483.096 335.923H480.622C480.414 335.923 480.246 336.091 480.246 336.299V337.483C480.246 337.691 480.414 337.86 480.622 337.86Z" fill="#3F3D56"/>
<path d="M474.17 337.86H476.644C476.851 337.86 477.02 337.691 477.02 337.483V336.299C477.02 336.091 476.851 335.923 476.644 335.923H474.17C473.962 335.923 473.794 336.091 473.794 336.299V337.483C473.794 337.691 473.962 337.86 474.17 337.86Z" fill="#3F3D56"/>
<path d="M467.718 337.86H470.192C470.4 337.86 470.568 337.691 470.568 337.483V336.299C470.568 336.091 470.4 335.923 470.192 335.923H467.718C467.51 335.923 467.342 336.091 467.342 336.299V337.483C467.342 337.691 467.51 337.86 467.718 337.86Z" fill="#3F3D56"/>
<path d="M461.266 337.86H463.74C463.948 337.86 464.116 337.691 464.116 337.483V336.299C464.116 336.091 463.948 335.923 463.74 335.923H461.266C461.058 335.923 460.89 336.091 460.89 336.299V337.483C460.89 337.691 461.058 337.86 461.266 337.86Z" fill="#3F3D56"/>
<path d="M454.814 337.86H457.288C457.496 337.86 457.664 337.691 457.664 337.483V336.299C457.664 336.091 457.496 335.923 457.288 335.923H454.814C454.607 335.923 454.438 336.091 454.438 336.299V337.483C454.438 337.691 454.607 337.86 454.814 337.86Z" fill="#3F3D56"/>
<path d="M448.362 337.86H450.836C451.044 337.86 451.212 337.691 451.212 337.483V336.299C451.212 336.091 451.044 335.923 450.836 335.923H448.362C448.155 335.923 447.986 336.091 447.986 336.299V337.483C447.986 337.691 448.155 337.86 448.362 337.86Z" fill="#3F3D56"/>
<path d="M441.911 337.86H444.384C444.592 337.86 444.76 337.691 444.76 337.483V336.299C444.76 336.091 444.592 335.923 444.384 335.923H441.911C441.703 335.923 441.535 336.091 441.535 336.299V337.483C441.535 337.691 441.703 337.86 441.911 337.86Z" fill="#3F3D56"/>
<path d="M435.459 337.86H437.933C438.14 337.86 438.309 337.691 438.309 337.483V336.299C438.309 336.091 438.14 335.923 437.933 335.923H435.459C435.251 335.923 435.083 336.091 435.083 336.299V337.483C435.083 337.691 435.251 337.86 435.459 337.86Z" fill="#3F3D56"/>
<path d="M429.007 337.86H431.481C431.688 337.86 431.857 337.691 431.857 337.483V336.299C431.857 336.091 431.688 335.923 431.481 335.923H429.007C428.799 335.923 428.631 336.091 428.631 336.299V337.483C428.631 337.691 428.799 337.86 429.007 337.86Z" fill="#3F3D56"/>
<path d="M422.555 337.86H425.029C425.237 337.86 425.405 337.691 425.405 337.483V336.299C425.405 336.091 425.237 335.923 425.029 335.923H422.555C422.347 335.923 422.179 336.091 422.179 336.299V337.483C422.179 337.691 422.347 337.86 422.555 337.86Z" fill="#3F3D56"/>
<path d="M416.103 337.86H418.577C418.785 337.86 418.953 337.691 418.953 337.483V336.299C418.953 336.091 418.785 335.923 418.577 335.923H416.103C415.895 335.923 415.727 336.091 415.727 336.299V337.483C415.727 337.691 415.895 337.86 416.103 337.86Z" fill="#3F3D56"/>
<path d="M409.651 337.86H412.125C412.333 337.86 412.501 337.691 412.501 337.483V336.299C412.501 336.091 412.333 335.923 412.125 335.923H409.651C409.444 335.923 409.275 336.091 409.275 336.299V337.483C409.275 337.691 409.444 337.86 409.651 337.86Z" fill="#3F3D56"/>
<path d="M403.199 337.86H405.673C405.881 337.86 406.049 337.691 406.049 337.483V336.299C406.049 336.091 405.881 335.923 405.673 335.923H403.199C402.992 335.923 402.823 336.091 402.823 336.299V337.483C402.823 337.691 402.992 337.86 403.199 337.86Z" fill="#3F3D56"/>
<path d="M396.748 337.86H399.221C399.429 337.86 399.598 337.691 399.598 337.483V336.299C399.598 336.091 399.429 335.923 399.221 335.923H396.748C396.54 335.923 396.372 336.091 396.372 336.299V337.483C396.372 337.691 396.54 337.86 396.748 337.86Z" fill="#3F3D56"/>
<path d="M390.296 337.86H392.77C392.977 337.86 393.146 337.691 393.146 337.483V336.299C393.146 336.091 392.977 335.923 392.77 335.923H390.296C390.088 335.923 389.92 336.091 389.92 336.299V337.483C389.92 337.691 390.088 337.86 390.296 337.86Z" fill="#3F3D56"/>
<path d="M383.844 337.86H386.318C386.525 337.86 386.694 337.691 386.694 337.483V336.299C386.694 336.091 386.525 335.923 386.318 335.923H383.844C383.636 335.923 383.468 336.091 383.468 336.299V337.483C383.468 337.691 383.636 337.86 383.844 337.86Z" fill="#3F3D56"/>
<path d="M427.071 341.733H452.127C452.334 341.733 452.503 341.564 452.503 341.357V340.172C452.503 339.965 452.334 339.796 452.127 339.796H427.071C426.864 339.796 426.695 339.965 426.695 340.172V341.357C426.695 341.564 426.864 341.733 427.071 341.733Z" fill="#3F3D56"/>
<path d="M400.526 276.454H398.336C397.672 276.454 397.133 276.993 397.133 277.657C397.133 278.322 397.672 278.86 398.336 278.86H400.526C401.19 278.86 401.728 278.322 401.728 277.657C401.728 276.993 401.19 276.454 400.526 276.454Z" fill="white"/>
<path d="M425.575 276.454H423.384C422.72 276.454 422.182 276.993 422.182 277.657C422.182 278.322 422.72 278.86 423.384 278.86H425.575C426.239 278.86 426.777 278.322 426.777 277.657C426.777 276.993 426.239 276.454 425.575 276.454Z" fill="white"/>
<path d="M432.672 276.454H430.482C429.818 276.454 429.279 276.993 429.279 277.657C429.279 278.322 429.818 278.86 430.482 278.86H432.672C433.336 278.86 433.874 278.322 433.874 277.657C433.874 276.993 433.336 276.454 432.672 276.454Z" fill="white"/>
<path d="M418.761 276.254H405.149C404.485 276.254 403.947 276.792 403.947 277.457C403.947 278.121 404.485 278.66 405.149 278.66H418.761C419.425 278.66 419.964 278.121 419.964 277.457C419.964 276.792 419.425 276.254 418.761 276.254Z" fill="white"/>
<path d="M452.16 276.254H438.548C437.883 276.254 437.345 276.792 437.345 277.457C437.345 278.121 437.883 278.66 438.548 278.66H452.16C452.824 278.66 453.362 278.121 453.362 277.457C453.362 276.792 452.824 276.254 452.16 276.254Z" fill="white"/>
<path d="M407.206 281.885H405.015C404.351 281.885 403.813 282.423 403.813 283.088C403.813 283.752 404.351 284.291 405.015 284.291H407.206C407.87 284.291 408.408 283.752 408.408 283.088C408.408 282.423 407.87 281.885 407.206 281.885Z" fill="white"/>
<path d="M432.254 281.885H430.064C429.4 281.885 428.862 282.423 428.862 283.088C428.862 283.752 429.4 284.291 430.064 284.291H432.254C432.918 284.291 433.457 283.752 433.457 283.088C433.457 282.423 432.918 281.885 432.254 281.885Z" fill="white"/>
<path d="M439.352 281.885H437.161C436.497 281.885 435.959 282.423 435.959 283.088C435.959 283.752 436.497 284.291 437.161 284.291H439.352C440.016 284.291 440.554 283.752 440.554 283.088C440.554 282.423 440.016 281.885 439.352 281.885Z" fill="white"/>
<path d="M425.441 281.684H411.829C411.165 281.684 410.626 282.223 410.626 282.887C410.626 283.551 411.165 284.09 411.829 284.09H425.441C426.105 284.09 426.643 283.551 426.643 282.887C426.643 282.223 426.105 281.684 425.441 281.684Z" fill="white"/>
<path d="M458.839 281.684H445.227C444.563 281.684 444.025 282.223 444.025 282.887C444.025 283.551 444.563 284.09 445.227 284.09H458.839C459.504 284.09 460.042 283.551 460.042 282.887C460.042 282.223 459.504 281.684 458.839 281.684Z" fill="white"/>
<path d="M413.885 287.315H411.695C411.031 287.315 410.493 287.854 410.493 288.518C410.493 289.182 411.031 289.721 411.695 289.721H413.885C414.549 289.721 415.088 289.182 415.088 288.518C415.088 287.854 414.549 287.315 413.885 287.315Z" fill="white"/>
<path d="M438.934 287.315H436.744C436.08 287.315 435.542 287.854 435.542 288.518C435.542 289.182 436.08 289.721 436.744 289.721H438.934C439.598 289.721 440.136 289.182 440.136 288.518C440.136 287.854 439.598 287.315 438.934 287.315Z" fill="white"/>
<path d="M446.031 287.315H443.841C443.177 287.315 442.639 287.854 442.639 288.518C442.639 289.182 443.177 289.721 443.841 289.721H446.031C446.695 289.721 447.234 289.182 447.234 288.518C447.234 287.854 446.695 287.315 446.031 287.315Z" fill="white"/>
<path d="M432.121 287.114H418.508C417.844 287.114 417.306 287.653 417.306 288.317C417.306 288.982 417.844 289.52 418.508 289.52H432.121C432.785 289.52 433.323 288.982 433.323 288.317C433.323 287.653 432.785 287.114 432.121 287.114Z" fill="white"/>
<path d="M465.519 287.114H451.907C451.243 287.114 450.705 287.653 450.705 288.317C450.705 288.982 451.243 289.52 451.907 289.52H465.519C466.183 289.52 466.722 288.982 466.722 288.317C466.722 287.653 466.183 287.114 465.519 287.114Z" fill="white"/>
<path d="M420.565 292.745H418.375C417.711 292.745 417.172 293.284 417.172 293.948C417.172 294.613 417.711 295.151 418.375 295.151H420.565C421.229 295.151 421.767 294.613 421.767 293.948C421.767 293.284 421.229 292.745 420.565 292.745Z" fill="white"/>
<path d="M445.614 292.745H443.424C442.76 292.745 442.221 293.284 442.221 293.948C442.221 294.613 442.76 295.151 443.424 295.151H445.614C446.278 295.151 446.816 294.613 446.816 293.948C446.816 293.284 446.278 292.745 445.614 292.745Z" fill="white"/>
<path d="M452.711 292.745H450.521C449.857 292.745 449.318 293.284 449.318 293.948C449.318 294.613 449.857 295.151 450.521 295.151H452.711C453.375 295.151 453.913 294.613 453.913 293.948C453.913 293.284 453.375 292.745 452.711 292.745Z" fill="white"/>
<path d="M438.8 292.545H425.188C424.524 292.545 423.986 293.083 423.986 293.748C423.986 294.412 424.524 294.951 425.188 294.951H438.8C439.464 294.951 440.003 294.412 440.003 293.748C440.003 293.083 439.464 292.545 438.8 292.545Z" fill="white"/>
<path d="M425.575 314.339H423.384C422.72 314.339 422.182 314.877 422.182 315.542C422.182 316.206 422.72 316.745 423.384 316.745H425.575C426.239 316.745 426.777 316.206 426.777 315.542C426.777 314.877 426.239 314.339 425.575 314.339Z" fill="white"/>
<path d="M432.672 314.339H430.482C429.818 314.339 429.279 314.877 429.279 315.542C429.279 316.206 429.818 316.745 430.482 316.745H432.672C433.336 316.745 433.874 316.206 433.874 315.542C433.874 314.877 433.336 314.339 432.672 314.339Z" fill="white"/>
<path d="M452.16 314.539H438.548C437.883 314.539 437.345 315.078 437.345 315.742C437.345 316.407 437.883 316.945 438.548 316.945H452.16C452.824 316.945 453.362 316.407 453.362 315.742C453.362 315.078 452.824 314.539 452.16 314.539Z" fill="white"/>
<path d="M400.526 314.339H398.336C397.672 314.339 397.133 314.877 397.133 315.542C397.133 316.206 397.672 316.745 398.336 316.745H400.526C401.19 316.745 401.728 316.206 401.728 315.542C401.728 314.877 401.19 314.339 400.526 314.339Z" fill="white"/>
<path d="M418.761 314.539H405.149C404.485 314.539 403.947 315.078 403.947 315.742C403.947 316.407 404.485 316.945 405.149 316.945H418.761C419.425 316.945 419.964 316.407 419.964 315.742C419.964 315.078 419.425 314.539 418.761 314.539Z" fill="white"/>
<path d="M407.206 308.908H405.015C404.351 308.908 403.813 309.447 403.813 310.111C403.813 310.776 404.351 311.314 405.015 311.314H407.206C407.87 311.314 408.408 310.776 408.408 310.111C408.408 309.447 407.87 308.908 407.206 308.908Z" fill="white"/>
<path d="M432.254 308.908H430.064C429.4 308.908 428.862 309.447 428.862 310.111C428.862 310.776 429.4 311.314 430.064 311.314H432.254C432.918 311.314 433.457 310.776 433.457 310.111C433.457 309.447 432.918 308.908 432.254 308.908Z" fill="white"/>
<path d="M439.352 308.908H437.161C436.497 308.908 435.959 309.447 435.959 310.111C435.959 310.776 436.497 311.314 437.161 311.314H439.352C440.016 311.314 440.554 310.776 440.554 310.111C440.554 309.447 440.016 308.908 439.352 308.908Z" fill="white"/>
<path d="M425.441 309.109H411.829C411.165 309.109 410.626 309.648 410.626 310.312C410.626 310.976 411.165 311.515 411.829 311.515H425.441C426.105 311.515 426.643 310.976 426.643 310.312C426.643 309.648 426.105 309.109 425.441 309.109Z" fill="white"/>
<path d="M413.885 303.478H411.695C411.031 303.478 410.493 304.017 410.493 304.681C410.493 305.345 411.031 305.884 411.695 305.884H413.885C414.549 305.884 415.088 305.345 415.088 304.681C415.088 304.017 414.549 303.478 413.885 303.478Z" fill="white"/>
<path d="M438.934 303.478H436.744C436.08 303.478 435.542 304.017 435.542 304.681C435.542 305.345 436.08 305.884 436.744 305.884H438.934C439.598 305.884 440.136 305.345 440.136 304.681C440.136 304.017 439.598 303.478 438.934 303.478Z" fill="white"/>
<path d="M446.031 303.478H443.841C443.177 303.478 442.639 304.017 442.639 304.681C442.639 305.345 443.177 305.884 443.841 305.884H446.031C446.695 305.884 447.234 305.345 447.234 304.681C447.234 304.017 446.695 303.478 446.031 303.478Z" fill="white"/>
<path d="M432.121 303.679H418.508C417.844 303.679 417.306 304.217 417.306 304.882C417.306 305.546 417.844 306.085 418.508 306.085H432.121C432.785 306.085 433.323 305.546 433.323 304.882C433.323 304.217 432.785 303.679 432.121 303.679Z" fill="white"/>
<path d="M420.565 298.048H418.375C417.711 298.048 417.172 298.586 417.172 299.251C417.172 299.915 417.711 300.454 418.375 300.454H420.565C421.229 300.454 421.767 299.915 421.767 299.251C421.767 298.586 421.229 298.048 420.565 298.048Z" fill="white"/>
<path d="M445.614 298.048H443.424C442.76 298.048 442.221 298.586 442.221 299.251C442.221 299.915 442.76 300.454 443.424 300.454H445.614C446.278 300.454 446.816 299.915 446.816 299.251C446.816 298.586 446.278 298.048 445.614 298.048Z" fill="white"/>
<path d="M452.711 298.048H450.521C449.857 298.048 449.318 298.586 449.318 299.251C449.318 299.915 449.857 300.454 450.521 300.454H452.711C453.375 300.454 453.913 299.915 453.913 299.251C453.913 298.586 453.375 298.048 452.711 298.048Z" fill="white"/>
<path d="M438.8 298.248H425.188C424.524 298.248 423.986 298.787 423.986 299.451C423.986 300.116 424.524 300.654 425.188 300.654H438.8C439.464 300.654 440.003 300.116 440.003 299.451C440.003 298.787 439.464 298.248 438.8 298.248Z" fill="white"/>
<path d="M388.882 377.981L378.6 361.719L410.872 335.978L424.193 321.212C425.924 319.293 428.127 317.863 430.583 317.064C433.04 316.264 435.662 316.124 438.19 316.656C440.717 317.189 443.061 318.376 444.986 320.099C446.911 321.822 448.351 324.02 449.161 326.474C450.362 330.11 450.104 334.071 448.441 337.52C446.778 340.97 443.841 343.638 440.25 344.962L419.186 352.726L388.882 377.981Z" fill="#FFB6B6"/>
<path d="M147.637 260.073V339.109H202.976V260.073C202.977 259.505 202.795 258.951 202.458 258.493C202.121 258.036 201.647 257.698 201.104 257.53C200.848 257.446 200.58 257.404 200.311 257.407H150.31C149.96 257.406 149.612 257.475 149.288 257.608C148.964 257.742 148.67 257.938 148.421 258.186C148.173 258.434 147.976 258.728 147.842 259.052C147.707 259.376 147.638 259.723 147.637 260.073ZM169.234 287.23C169.248 285.672 169.877 284.183 170.983 283.086C172.089 281.99 173.584 281.374 175.141 281.374C176.698 281.374 178.193 281.99 179.299 283.086C180.405 284.183 181.034 285.672 181.048 287.23V296.401C181.04 297.963 180.414 299.459 179.307 300.561C178.2 301.663 176.702 302.282 175.141 302.282C173.579 302.282 172.081 301.663 170.974 300.561C169.867 299.459 169.242 297.963 169.234 296.401V287.23Z" fill="#2F2E41"/>
<path d="M147.468 336.582V344.203C147.469 344.598 147.626 344.977 147.904 345.256C148.183 345.536 148.56 345.695 148.955 345.698H201.659C202.054 345.696 202.432 345.538 202.71 345.258C202.989 344.978 203.145 344.599 203.145 344.203V336.582H147.468Z" fill="#3F3D56"/>
<path d="M60.583 140.995V285.304C60.5845 287.143 61.3153 288.906 62.6149 290.207C63.9145 291.507 65.6768 292.238 67.5147 292.24H281.242C283.08 292.238 284.842 291.507 286.142 290.207C287.442 288.906 288.172 287.143 288.174 285.304V140.995C288.169 139.158 287.438 137.397 286.138 136.099C284.839 134.8 283.079 134.07 281.242 134.067H67.5147C65.6784 134.07 63.9178 134.8 62.6186 136.099C61.3194 137.397 60.5874 139.158 60.583 140.995Z" fill="#3F3D56"/>
<path d="M65.597 142.791V283.524C65.5987 284.506 65.9895 285.448 66.6839 286.143C67.3783 286.838 68.3196 287.229 69.3016 287.23H279.463C280.445 287.229 281.386 286.838 282.081 286.143C282.775 285.448 283.166 284.506 283.168 283.524V142.791C283.168 141.807 282.777 140.864 282.083 140.167C281.388 139.471 280.446 139.079 279.463 139.077H69.3016C68.3184 139.079 67.3762 139.471 66.6817 140.167C65.9872 140.864 65.5971 141.807 65.597 142.791Z" fill="white"/>
<path d="M104.599 345.182C104.813 345.45 105.085 345.667 105.395 345.815C105.704 345.963 106.043 346.039 106.386 346.037H231.419C231.761 346.037 232.098 345.96 232.407 345.813C232.715 345.666 232.987 345.451 233.203 345.186C233.418 344.92 233.572 344.609 233.652 344.277C233.732 343.944 233.738 343.598 233.668 343.263L231.727 334.039C231.646 333.662 231.473 333.312 231.223 333.02C230.973 332.728 230.653 332.503 230.294 332.366C230.034 332.264 229.757 332.212 229.478 332.212H108.319C108.04 332.212 107.763 332.264 107.503 332.366C107.144 332.503 106.824 332.728 106.574 333.02C106.324 333.312 106.151 333.662 106.07 334.039L104.13 343.263C104.06 343.598 104.067 343.944 104.148 344.276C104.229 344.608 104.383 344.917 104.599 345.182Z" fill="#2F2E41"/>
<path d="M272.643 158.463H75.9954C75.791 158.459 75.5965 158.374 75.4536 158.228C75.3106 158.082 75.2306 157.885 75.2306 157.681C75.2306 157.476 75.3106 157.28 75.4536 157.133C75.5965 156.987 75.791 156.903 75.9954 156.898H272.643C272.847 156.903 273.042 156.987 273.184 157.133C273.327 157.28 273.407 157.476 273.407 157.681C273.407 157.885 273.327 158.082 273.184 158.228C273.042 158.374 272.847 158.459 272.643 158.463Z" fill="#3F3D56"/>
<path d="M89.3814 152.903C91.9125 152.903 93.9644 150.804 93.9644 148.215C93.9644 145.626 91.9125 143.528 89.3814 143.528C86.8503 143.528 84.7985 145.626 84.7985 148.215C84.7985 150.804 86.8503 152.903 89.3814 152.903Z" fill="#3F3D56"/>
<path d="M105.213 152.903C107.745 152.903 109.796 150.804 109.796 148.215C109.796 145.626 107.745 143.528 105.213 143.528C102.682 143.528 100.631 145.626 100.631 148.215C100.631 150.804 102.682 152.903 105.213 152.903Z" fill="#3F3D56"/>
<path d="M121.045 152.903C123.577 152.903 125.628 150.804 125.628 148.215C125.628 145.626 123.577 143.528 121.045 143.528C118.514 143.528 116.463 145.626 116.463 148.215C116.463 150.804 118.514 152.903 121.045 152.903Z" fill="#3F3D56"/>
<path d="M263.109 144.687H251.864C251.642 144.692 251.431 144.784 251.275 144.943C251.12 145.102 251.033 145.316 251.033 145.538C251.033 145.761 251.12 145.974 251.275 146.134C251.431 146.293 251.642 146.385 251.864 146.39H263.109C263.333 146.387 263.546 146.296 263.703 146.136C263.86 145.977 263.948 145.762 263.948 145.538C263.948 145.315 263.86 145.1 263.703 144.94C263.546 144.781 263.333 144.69 263.109 144.687Z" fill="#3F3D56"/>
<path d="M263.109 147.885H251.864C251.642 147.89 251.43 147.982 251.275 148.141C251.119 148.3 251.032 148.514 251.032 148.736C251.032 148.959 251.119 149.173 251.275 149.332C251.43 149.491 251.642 149.583 251.864 149.588H263.109C263.333 149.585 263.547 149.494 263.704 149.335C263.862 149.176 263.95 148.961 263.95 148.736C263.95 148.512 263.862 148.297 263.704 148.138C263.547 147.979 263.333 147.888 263.109 147.885Z" fill="#3F3D56"/>
<path d="M263.109 151.083H251.864C251.642 151.088 251.431 151.18 251.275 151.339C251.12 151.498 251.033 151.712 251.033 151.935C251.033 152.157 251.12 152.371 251.275 152.53C251.431 152.689 251.642 152.781 251.864 152.786H263.109C263.333 152.783 263.546 152.692 263.703 152.532C263.86 152.373 263.948 152.158 263.948 151.935C263.948 151.711 263.86 151.496 263.703 151.337C263.546 151.177 263.333 151.086 263.109 151.083Z" fill="#3F3D56"/>
<path d="M534.2 339.927C534.539 340.915 535.183 341.771 536.038 342.37C536.894 342.97 537.917 343.283 538.962 343.264L559.366 342.739C560.418 342.718 561.435 342.358 562.265 341.711C563.096 341.064 563.694 340.166 563.972 339.15L566.859 308.258C567.884 308.722 568.999 308.951 570.123 308.929C571.1 308.904 572.063 308.687 572.956 308.291C573.849 307.894 574.655 307.325 575.329 306.617C576.002 305.908 576.529 305.074 576.881 304.161C577.232 303.249 577.4 302.276 577.375 301.299C577.351 300.321 577.134 299.358 576.738 298.465C576.341 297.571 575.773 296.764 575.065 296.091C574.356 295.417 573.523 294.889 572.611 294.538C571.699 294.186 570.727 294.018 569.75 294.043C569.3 294.041 568.852 294.088 568.413 294.182C567.935 293.664 567.354 293.253 566.707 292.974C566.061 292.695 565.363 292.554 564.659 292.561L533.273 293.372C533.013 293.382 532.754 293.414 532.499 293.468C531.811 293.597 531.158 293.871 530.584 294.273C530.011 294.675 529.53 295.195 529.175 295.799C528.819 296.402 528.597 297.075 528.523 297.771C528.449 298.468 528.525 299.172 528.746 299.837L534.2 339.927ZM567.451 306.16L569.506 298.798C569.74 297.948 569.745 297.051 569.522 296.198C569.621 296.198 569.709 296.15 569.809 296.15C571.218 296.121 572.581 296.652 573.599 297.627C574.617 298.601 575.207 299.94 575.24 301.35C575.273 302.759 574.746 304.124 573.775 305.146C572.803 306.167 571.467 306.761 570.058 306.798C569.148 306.826 568.246 306.606 567.451 306.16Z" fill="#2F2E41"/>
<path d="M532.499 293.468C533.168 297.294 540.685 299.983 549.725 299.516C558.037 299.132 564.834 296.212 566.079 292.751C565.618 292.614 565.139 292.55 564.659 292.561L533.273 293.372C533.013 293.382 532.754 293.414 532.499 293.468Z" fill="#3F3D56"/>
<path d="M551.382 322.951C551.423 322.941 551.462 322.923 551.498 322.9L555.929 319.998C555.982 319.963 556.026 319.915 556.057 319.859C556.087 319.803 556.103 319.74 556.103 319.676C556.103 319.612 556.087 319.549 556.057 319.493C556.027 319.436 555.983 319.388 555.929 319.353L551.324 316.335C551.281 316.307 551.234 316.288 551.184 316.278C551.134 316.269 551.083 316.269 551.034 316.279C550.984 316.289 550.937 316.309 550.895 316.338C550.853 316.366 550.817 316.403 550.789 316.445C550.761 316.488 550.742 316.535 550.733 316.585C550.724 316.635 550.724 316.686 550.734 316.736C550.745 316.785 550.765 316.832 550.794 316.874C550.822 316.916 550.859 316.952 550.902 316.979L555.015 319.675L551.076 322.255C551 322.305 550.944 322.38 550.918 322.468C550.892 322.555 550.898 322.649 550.934 322.732C550.971 322.816 551.036 322.884 551.118 322.924C551.2 322.964 551.293 322.973 551.382 322.951Z" fill="#0FDCB7"/>
<path d="M544.383 323.274C544.457 323.255 544.525 323.214 544.576 323.157C544.627 323.1 544.66 323.029 544.67 322.953C544.681 322.877 544.668 322.799 544.634 322.73C544.6 322.662 544.547 322.604 544.48 322.566L540.396 320.223L544.344 317.289C544.384 317.259 544.418 317.221 544.444 317.178C544.47 317.134 544.487 317.086 544.495 317.036C544.502 316.986 544.5 316.935 544.487 316.886C544.475 316.837 544.453 316.791 544.423 316.751C544.393 316.71 544.355 316.676 544.312 316.65C544.268 316.624 544.22 316.607 544.17 316.599C544.12 316.592 544.069 316.594 544.02 316.607C543.971 316.619 543.925 316.641 543.885 316.671L539.465 319.956C539.413 319.994 539.372 320.044 539.345 320.102C539.318 320.16 539.306 320.224 539.31 320.288C539.313 320.352 539.333 320.414 539.367 320.468C539.4 320.522 539.447 320.568 539.503 320.599L544.097 323.235C544.184 323.284 544.286 323.299 544.383 323.274Z" fill="#0FDCB7"/>
<path d="M550.941 325.494C550.978 325.485 551.014 325.47 551.046 325.449C551.09 325.423 551.127 325.389 551.157 325.348C551.187 325.307 551.209 325.261 551.221 325.211C551.233 325.162 551.235 325.111 551.227 325.061C551.219 325.011 551.202 324.963 551.175 324.92L544.894 314.587C544.841 314.5 544.755 314.437 544.656 314.413C544.557 314.389 544.452 314.406 544.365 314.459C544.278 314.512 544.215 314.598 544.191 314.697C544.167 314.796 544.183 314.901 544.236 314.988L550.517 325.321C550.56 325.391 550.624 325.446 550.701 325.477C550.777 325.508 550.861 325.514 550.941 325.494Z" fill="#0FDCB7"/>
<path d="M197.815 201.002H163.78C162.391 201.002 161.266 202.128 161.266 203.517V206.844C161.266 208.233 162.391 209.36 163.78 209.36H197.815C199.203 209.36 200.329 208.233 200.329 206.844V203.517C200.329 202.128 199.203 201.002 197.815 201.002Z" fill="#0FDCB7"/>
<path d="M217.654 217.718H143.941C142.552 217.718 141.427 218.844 141.427 220.233V223.56C141.427 224.95 142.552 226.076 143.941 226.076H217.654C219.042 226.076 220.168 224.95 220.168 223.56V220.233C220.168 218.844 219.042 217.718 217.654 217.718Z" fill="#E6E6E6"/>
<path d="M217.654 234.434H143.941C142.552 234.434 141.427 235.56 141.427 236.949V240.276C141.427 241.666 142.552 242.792 143.941 242.792H217.654C219.042 242.792 220.168 241.666 220.168 240.276V236.949C220.168 235.56 219.042 234.434 217.654 234.434Z" fill="#E6E6E6"/>
<path d="M223.903 290.409L224.069 290.937L224.078 290.954L229.104 306.242L234.885 323.86L245.762 356.967L245.868 362.11V362.127L246.676 403.498L244.436 409.107L246.957 418.303C246.957 418.303 245.797 404.403 239.577 412.385C236.054 416.921 231.933 421.563 228.55 425.915C233.479 427.91 238.487 429.715 243.575 431.33C244.673 431.681 245.78 432.016 246.887 432.35C247.124 432.42 247.361 432.49 247.599 432.561C264.462 437.55 281.895 440.354 299.471 440.903C300.385 440.93 301.281 440.947 302.151 440.965C302.459 440.974 302.757 440.982 303.056 440.982C304.04 440.991 305.015 441 305.999 441C307.985 441 309.962 440.971 311.93 440.912C326.497 440.501 340.979 438.542 355.131 435.066C355.034 429.22 354.771 422.389 354.393 415.093C354.217 411.515 350.272 407.638 350.035 403.893C349.868 401.08 353.409 398.433 353.225 395.576C352.03 377.985 350.536 384.738 349.429 372.281C349.315 371.059 349.209 369.89 349.113 368.773C348.401 360.773 347.909 355.771 347.909 355.771L352.636 325.961L360.06 279.157L359.489 278.216L358.848 277.9L319.688 258.507L317.562 253.056C316.942 251.486 315.868 250.137 314.476 249.183C313.084 248.229 311.438 247.713 309.751 247.702L283.955 247.597C282.617 247.591 281.296 247.904 280.102 248.511C278.909 249.118 277.877 250.001 277.093 251.087L270.108 260.766L223.903 290.409Z" fill="#3F3D56"/>
<path d="M251.71 349.6L245.868 362.11L241.879 370.655L235.017 406.602L231.582 410.25L228.638 397.335L197.832 404.179C196.822 398.561 197.562 404.369 196.938 398.206C197.114 398.03 197.298 397.854 197.483 397.679C197.975 397.221 198.388 396.791 198.379 396.377C198.028 375.121 199.082 338.945 207.886 317.029C209.264 313.451 211.082 310.057 213.298 306.928C213.474 306.691 213.64 306.453 213.807 306.216C217.867 300.528 220.432 294.928 224.07 290.946V290.937C224.092 290.919 224.113 290.898 224.131 290.875C224.144 290.869 224.156 290.86 224.166 290.849L249.154 277.592L250.226 307.728L250.99 329.389L251.71 349.6Z" fill="#3F3D56"/>
<path d="M341.811 353.153L349.109 368.778L351.657 374.219L358.516 410.163L361.941 413.802L364.891 400.89L366.277 400.605L391.276 395.425L398.562 418.579C400.205 415.841 400.852 412.62 400.394 409.46C399.936 406.3 398.402 403.395 396.051 401.236C395.553 400.785 395.138 400.347 395.15 399.932C395.565 374.93 394.037 329.278 380.234 310.488C375.85 304.525 373.22 298.586 369.393 294.437C369.381 294.425 369.381 294.413 369.369 294.413L360.057 279.156L359.488 278.219L358.848 277.899L341.811 353.153Z" fill="#3F3D56"/>
<path d="M297.598 240.251C316.552 240.251 331.917 224.878 331.917 205.913C331.917 186.949 316.552 171.575 297.598 171.575C278.645 171.575 263.28 186.949 263.28 205.913C263.28 224.878 278.645 240.251 297.598 240.251Z" fill="#FFB6B6"/>
<path d="M343.984 181.928C343.718 181.644 343.397 181.416 343.041 181.259C342.685 181.101 342.301 181.017 341.912 181.011L342.428 179.578C342.596 179.126 342.642 178.638 342.559 178.163C342.477 177.688 342.27 177.244 341.96 176.875C341.65 176.507 341.247 176.228 340.793 176.066C340.34 175.904 339.851 175.866 339.378 175.956L337.499 176.318L337.676 175.062C337.744 174.594 337.689 174.117 337.516 173.677C337.344 173.236 337.06 172.849 336.692 172.552C336.325 172.255 335.886 172.058 335.42 171.982C334.954 171.906 334.475 171.953 334.033 172.118C333.63 172.277 333.197 172.343 332.765 172.313C332.333 172.282 331.914 172.155 331.537 171.941C331.159 171.733 330.831 171.446 330.576 171.099C330.32 170.751 330.144 170.352 330.058 169.93L329.404 166.77L329.335 166.6C326.146 161.283 320.015 157.414 312.514 155.996C305.836 154.725 298.989 155.372 292.389 155.981C289.77 156.228 286.812 156.505 284.348 158.016C282.253 159.31 280.481 161.9 280.843 164.512C274.335 162.516 267.357 166.5 263.899 171.525C259.802 177.505 259.132 184.995 259.024 190.852C258.731 204.708 261.589 216.044 267.496 224.552C267.927 225.168 268.035 226.455 268.89 226.887L268.713 226.602C269.668 227.08 270.638 227.85 270.276 228.675C269.237 231.048 276.145 236.296 281.013 238.03C289.893 241.198 301.7 240.928 310.003 239.787L310.295 237.822C313.291 237.414 315.402 236.635 315.995 235.418C317.042 234.524 317.936 233.722 318.714 232.983L318.721 232.975C318.737 232.959 318.768 232.936 318.783 232.921C322.534 229.322 323.404 227.272 323.797 224.151C324.174 221.092 323.504 217.986 322.819 215.189C337.252 217.424 317.135 199.807 330.582 196.401C330.736 196.353 330.893 196.315 331.052 196.285C331.445 196.193 331.838 196.1 332.215 195.992C334.034 195.498 335.776 194.754 337.391 193.781C341.149 191.492 342.389 188.456 344.33 185.034C344.61 184.547 344.728 183.983 344.665 183.424C344.603 182.866 344.364 182.342 343.984 181.928Z" fill="#2F2E41"/>
<path d="M418.977 355.598C418.969 356.946 418.954 358.834 418.892 361.169C418.884 361.493 418.877 361.825 418.869 362.164C418.769 366.456 418.669 370.055 418.507 374.054C418.499 374.332 418.492 374.602 418.476 374.879C418.26 380.458 417.922 386.955 417.336 397.243C416.25 416.247 414.356 399.855 412.453 406.521C412.361 406.853 412.261 407.246 412.168 407.708C411.88 409.386 411.394 411.023 410.72 412.586C409.711 413.187 408.672 413.765 407.647 414.343C404.728 415.969 401.763 417.533 398.775 419.021C397.096 419.853 395.409 420.67 393.715 421.456C393.445 421.579 393.183 421.703 392.921 421.818C384.244 425.834 375.302 429.248 366.157 432.037C364.37 432.576 362.591 433.1 360.789 433.586C358.91 434.11 357.031 434.603 355.128 435.065C340.976 438.542 326.495 440.502 311.928 440.914C309.964 440.976 307.985 440.999 305.998 440.999C305.012 440.999 304.042 440.992 303.056 440.984C302.755 440.984 302.455 440.976 302.155 440.968C301.284 440.945 300.383 440.93 299.474 440.907C281.898 440.358 264.464 437.553 247.602 432.561L246.886 432.353C245.777 432.014 244.675 431.682 243.574 431.328C238.491 429.717 233.482 427.914 228.548 425.918C224.781 424.4 221.059 422.771 217.38 421.032C217.346 421.023 217.315 421.007 217.287 420.986C216.517 420.631 215.739 420.262 214.969 419.884C214.869 419.83 214.761 419.776 214.653 419.722C211.781 418.32 208.939 416.85 206.127 415.314C203.763 409.881 200.436 408.841 198.372 404.063C197.771 402.643 197.337 401.159 197.078 399.639C197.078 399.624 197.07 399.609 197.07 399.585C197.286 402.452 196.153 394.499 197.062 399.555C197.055 399.462 197.047 399.362 197.039 399.246C197.016 398.969 196.985 398.63 196.939 398.206C194.297 372.398 194.467 342.882 193.319 318.561C193.242 316.989 193.163 315.484 193.08 314.045C193.057 313.568 193.027 313.097 192.996 312.635C193.05 312.496 193.111 312.35 193.181 312.211C193.195 312.171 193.213 312.133 193.234 312.096C193.257 312.048 193.283 312.002 193.311 311.957C193.327 311.934 193.35 311.903 193.365 311.88C193.377 311.853 193.39 311.828 193.404 311.803C193.473 311.695 193.55 311.579 193.635 311.471C193.673 311.425 193.704 311.387 193.743 311.348C193.769 311.309 193.8 311.273 193.835 311.24C193.859 311.203 193.887 311.17 193.92 311.14C193.951 311.109 193.982 311.071 194.02 311.032C194.037 311.008 194.057 310.987 194.082 310.971C194.143 310.901 194.21 310.836 194.282 310.778C194.557 310.525 194.85 310.293 195.16 310.084C195.268 310.015 195.383 309.946 195.491 309.869C196.267 309.404 197.085 309.012 197.933 308.697C198.225 308.589 198.518 308.489 198.834 308.381C198.949 308.35 199.057 308.312 199.173 308.273C199.342 308.219 199.512 308.165 199.689 308.127C200.567 307.865 201.514 307.641 202.538 307.433C202.662 307.41 202.793 307.387 202.923 307.356C203.108 307.318 203.301 307.287 203.493 307.256C203.755 307.21 204.025 307.164 204.294 307.117C206.582 306.755 209.177 306.486 212.042 306.308C212.312 306.293 212.582 306.277 212.851 306.262C213.167 306.247 213.483 306.231 213.806 306.216C214.076 306.2 214.353 306.193 214.63 306.185C214.9 306.17 215.177 306.162 215.462 306.154C216.24 306.131 217.041 306.108 217.857 306.092C220.183 306.046 222.633 306.062 225.205 306.116C226.399 306.146 227.616 306.177 228.863 306.231C228.948 306.231 229.025 306.239 229.102 306.239C230.188 306.277 231.282 306.324 232.406 306.385C233.192 306.424 233.985 306.462 234.778 306.509C235.525 306.555 236.28 306.601 237.043 306.655C237.636 306.686 238.229 306.732 238.83 306.771C239.338 306.809 239.846 306.848 240.355 306.879L241.048 306.925C241.425 306.956 241.803 306.979 242.188 307.017C243.035 307.087 243.882 307.156 244.745 307.225C245.6 307.302 246.47 307.379 247.34 307.456C248.211 307.534 249.089 307.618 249.967 307.703C250.059 307.711 250.144 307.718 250.228 307.726C251.029 307.811 251.83 307.888 252.639 307.973C252.824 307.988 253.016 308.004 253.201 308.027C253.972 308.104 254.758 308.195 255.537 308.278C255.775 308.304 256.013 308.328 256.252 308.355C256.862 308.421 257.463 308.479 258.077 308.551C258.885 308.643 259.709 308.728 260.51 308.836C261.134 308.905 261.758 308.975 262.382 309.052C263.36 309.167 264.354 309.291 265.347 309.422C265.725 309.468 266.102 309.514 266.479 309.568C269.314 309.923 272.179 310.316 275.09 310.724C279.503 311.348 283.986 312.026 288.499 312.758C293.02 313.491 297.567 314.264 302.139 315.078C303.294 315.286 304.45 315.494 305.613 315.71C306.136 315.81 306.66 315.91 307.184 316.01C308.077 316.172 308.971 316.342 309.864 316.511C310.757 316.681 311.651 316.85 312.544 317.028C313.607 317.236 314.678 317.444 315.741 317.652C322.742 319.039 329.704 320.519 336.497 322.068C337.614 322.322 338.731 322.584 339.84 322.838C342.058 323.355 344.256 323.879 346.433 324.41C347.033 324.549 347.626 324.695 348.219 324.842C349.698 325.212 351.177 325.582 352.633 325.959L352.887 326.029C353.957 326.291 355.005 326.56 356.052 326.838C358.525 327.485 360.956 328.14 363.346 328.803C364.933 329.242 366.501 329.687 368.052 330.136C370.37 330.807 372.642 331.485 374.853 332.171C375.399 332.34 375.946 332.51 376.485 332.671C378.103 333.172 379.697 333.681 381.245 334.19C382.477 334.59 383.679 334.999 384.865 335.407C386.051 335.816 387.214 336.224 388.354 336.633C389.086 336.895 389.81 337.172 390.534 337.434C391.573 337.819 392.598 338.205 393.599 338.59C393.907 338.706 394.207 338.829 394.508 338.944C394.7 339.029 394.885 339.099 395.07 339.176C395.432 339.322 395.802 339.461 396.156 339.607C396.518 339.746 396.872 339.892 397.227 340.046C397.573 340.185 397.927 340.332 398.266 340.478C398.613 340.617 398.952 340.763 399.291 340.917C399.576 341.033 399.853 341.156 400.122 341.279C400.669 341.518 401.216 341.757 401.748 342.004C402.009 342.127 402.271 342.243 402.533 342.366L403.134 342.643C403.219 342.69 403.303 342.728 403.388 342.767C403.581 342.859 403.781 342.959 403.973 343.052C404.42 343.26 404.859 343.484 405.29 343.692C405.868 343.984 406.43 344.277 406.969 344.562C407.516 344.855 408.048 345.148 408.556 345.433C408.641 345.479 408.718 345.526 408.803 345.572C408.918 345.634 409.034 345.703 409.149 345.765C409.542 345.988 409.919 346.219 410.297 346.443C411.036 346.897 411.737 347.344 412.392 347.791C412.538 347.891 412.677 347.992 412.823 348.084C413.308 348.431 413.77 348.77 414.202 349.117C414.202 349.124 414.202 349.124 414.209 349.124C414.356 349.232 414.494 349.348 414.633 349.456C414.748 349.564 414.872 349.656 414.987 349.764C415.388 350.111 415.757 350.442 416.096 350.781C416.21 350.886 416.318 350.997 416.42 351.113C416.465 351.15 416.506 351.191 416.543 351.236C416.697 351.39 416.836 351.544 416.967 351.698C416.987 351.72 417.005 351.743 417.02 351.768C417.205 351.984 417.375 352.199 417.536 352.415C417.614 352.523 417.698 352.631 417.768 352.739C417.86 352.87 417.952 353.008 418.029 353.139C418.099 353.247 418.16 353.363 418.222 353.471C418.385 353.749 418.525 354.04 418.638 354.342C418.724 354.546 418.794 354.758 418.846 354.974C418.904 355.178 418.948 355.387 418.977 355.598Z" fill="#75739C"/>
<path opacity="0.2" d="M418.977 355.598C418.969 356.946 418.954 358.834 418.892 361.169C418.884 361.493 418.869 361.825 418.861 362.164C418.784 365.439 418.669 369.485 418.507 374.054C418.499 374.332 418.492 374.602 418.476 374.879C418.261 380.458 417.922 386.955 417.336 397.243C416.25 416.247 414.356 399.855 412.453 406.521C407.17 403.269 401.378 399.863 395.186 396.364C394.069 395.732 392.942 395.098 391.805 394.461C379.42 387.548 365.587 380.304 351.146 373.13C350.576 372.845 349.999 372.559 349.429 372.282C316.349 355.921 280.243 340.008 250.991 329.389C245.345 327.339 239.954 325.489 234.886 323.863C224.211 320.449 214.985 318.06 207.883 317.028C200.49 315.949 195.383 316.334 193.319 318.561C193.242 316.989 193.163 315.484 193.08 314.045C193.05 313.568 193.019 313.097 192.988 312.635C193.035 312.508 193.097 312.387 193.157 312.265C193.166 312.247 193.172 312.229 193.181 312.211C193.195 312.171 193.213 312.133 193.234 312.096C193.257 312.048 193.283 312.001 193.311 311.957C193.336 311.902 193.367 311.851 193.404 311.803C193.473 311.695 193.55 311.579 193.635 311.471C193.697 311.391 193.764 311.313 193.835 311.24C193.859 311.203 193.887 311.169 193.92 311.14C193.951 311.109 193.982 311.071 194.02 311.032C194.036 311.008 194.057 310.987 194.082 310.971C194.143 310.901 194.21 310.836 194.282 310.778C194.557 310.525 194.85 310.293 195.16 310.084C195.268 310.015 195.383 309.946 195.491 309.868C196.267 309.404 197.085 309.012 197.933 308.697C198.225 308.589 198.518 308.489 198.834 308.381C198.949 308.35 199.057 308.312 199.173 308.273C199.342 308.219 199.511 308.165 199.689 308.127C200.567 307.865 201.514 307.641 202.538 307.433C202.846 307.372 203.17 307.31 203.493 307.256C203.755 307.21 204.025 307.164 204.294 307.117C206.582 306.755 209.177 306.485 212.042 306.308C212.312 306.293 212.582 306.277 212.851 306.262C213.167 306.247 213.483 306.231 213.806 306.216C214.076 306.2 214.353 306.193 214.63 306.185C214.9 306.169 215.177 306.162 215.462 306.154C216.24 306.131 217.041 306.108 217.857 306.092C220.183 306.054 222.633 306.069 225.205 306.123C226.399 306.146 227.616 306.185 228.863 306.239C228.94 306.239 229.025 306.247 229.102 306.247C230.188 306.277 231.289 306.331 232.406 306.385C233.192 306.424 233.985 306.462 234.778 306.509C235.525 306.555 236.28 306.601 237.043 306.655C237.636 306.686 238.229 306.732 238.83 306.771C239.338 306.809 239.846 306.848 240.355 306.878C240.963 306.925 241.571 306.971 242.188 307.017C243.035 307.087 243.882 307.156 244.745 307.225C245.6 307.302 246.47 307.379 247.34 307.456C248.21 307.533 249.088 307.618 249.966 307.703C250.059 307.711 250.144 307.718 250.228 307.726C251.029 307.811 251.83 307.888 252.639 307.973C257.122 308.427 261.735 308.959 266.479 309.568C269.314 309.93 272.184 310.318 275.09 310.732C279.503 311.356 283.986 312.034 288.499 312.758C293.02 313.49 297.567 314.264 302.139 315.078C303.294 315.286 304.45 315.494 305.613 315.71C307.03 315.972 308.447 316.239 309.864 316.511C310.758 316.681 311.651 316.85 312.544 317.028C313.607 317.236 314.678 317.444 315.741 317.652C322.742 319.039 329.704 320.519 336.497 322.068C337.614 322.322 338.731 322.584 339.84 322.838C342.058 323.355 344.256 323.879 346.433 324.41C347.033 324.557 347.626 324.703 348.22 324.85C349.706 325.219 351.177 325.589 352.633 325.959V325.967C352.717 325.982 352.802 326.006 352.887 326.029C353.95 326.298 355.005 326.568 356.052 326.846C358.525 327.493 360.956 328.145 363.346 328.803C364.933 329.25 366.504 329.689 368.052 330.136C370.37 330.814 372.642 331.492 374.853 332.171C375.399 332.34 375.946 332.51 376.485 332.672C378.103 333.18 379.689 333.686 381.245 334.19C382.478 334.59 383.679 334.999 384.865 335.407C386.051 335.816 387.214 336.224 388.354 336.633C389.093 336.895 389.817 337.164 390.534 337.426C391.581 337.812 392.598 338.197 393.599 338.59C393.907 338.706 394.207 338.829 394.508 338.944C395.07 339.16 395.617 339.384 396.156 339.607C396.518 339.746 396.872 339.892 397.227 340.046C397.573 340.185 397.927 340.332 398.266 340.478C398.613 340.617 398.952 340.763 399.291 340.917C399.576 341.033 399.853 341.156 400.123 341.279C400.669 341.518 401.216 341.757 401.748 342.004C402.01 342.127 402.271 342.243 402.533 342.366L403.134 342.643C403.219 342.69 403.303 342.728 403.388 342.767C404.043 343.075 404.674 343.383 405.29 343.692C405.868 343.984 406.43 344.277 406.97 344.562C407.609 344.901 408.217 345.233 408.803 345.572C408.918 345.633 409.034 345.703 409.149 345.765C409.542 345.988 409.919 346.219 410.297 346.443C411.036 346.897 411.737 347.344 412.392 347.791C413.039 348.238 413.639 348.678 414.202 349.117C414.202 349.124 414.202 349.124 414.209 349.124C414.479 349.34 414.741 349.556 414.987 349.764C415.388 350.111 415.757 350.442 416.096 350.781C416.21 350.886 416.318 350.997 416.42 351.113C416.465 351.15 416.506 351.191 416.543 351.236C416.705 351.413 416.866 351.59 417.021 351.768C417.205 351.984 417.375 352.199 417.537 352.415C417.614 352.523 417.698 352.631 417.768 352.739C417.86 352.87 417.952 353.008 418.029 353.139C418.099 353.247 418.16 353.363 418.222 353.471C418.385 353.749 418.525 354.04 418.638 354.342C418.722 354.547 418.792 354.758 418.846 354.974C418.904 355.178 418.948 355.387 418.977 355.598Z" fill="black"/>
</g>
<defs>
<clipPath id="clip0_6_16">
<rect width="606" height="441" fill="white"/>
</clipPath>
</defs>
</svg>
