<svg width="27" height="25" viewBox="0 0 27 25" fill="none" xmlns="http://www.w3.org/2000/svg">
<path fill-rule="evenodd" clip-rule="evenodd" d="M25.65 17.7917C26.3423 17.7917 26.9129 18.2555 26.9909 18.853L27 18.9931V21.3958C27 23.3153 25.314 24.8843 23.188 24.9939L22.95 25H4.05C1.89313 25 0.130058 23.4996 0.00687504 21.6076L0 21.3958V18.9931C0 18.3295 0.604416 17.7917 1.35 17.7917C2.04233 17.7917 2.61293 18.2555 2.69092 18.853L2.7 18.9931V21.3958C2.7 22.012 3.22115 22.5197 3.89256 22.5891L4.05 22.5972H22.95C23.6423 22.5972 24.2129 22.1334 24.2909 21.5359L24.3 21.3958V18.9931C24.3 18.3295 24.9044 17.7917 25.65 17.7917ZM13.5 0.972229C14.2456 0.972229 14.85 1.51011 14.85 2.17362V13.6889L16.5954 12.1366C17.0821 11.7035 17.8478 11.6702 18.3774 12.0367L18.5046 12.1366C18.9912 12.5697 19.0287 13.2512 18.6169 13.7224L18.5046 13.8356L14.4546 17.4398L14.3952 17.4895L14.3037 17.5558L14.1535 17.6419L14.0013 17.7061L13.8591 17.7486L13.6586 17.7835L13.5 17.7917L13.3984 17.7883L13.229 17.7674L13.0786 17.7319L12.9287 17.6791L12.797 17.6163L12.6674 17.536C12.6246 17.5061 12.5838 17.474 12.5454 17.4398L8.49541 13.8356C7.9682 13.3665 7.9682 12.6058 8.49541 12.1366C8.98206 11.7035 9.74782 11.6702 10.2774 12.0367L10.4046 12.1366L12.15 13.6889V2.17362C12.15 1.51011 12.7544 0.972229 13.5 0.972229Z" fill="#EFEFEF"/>
</svg>
